<?xml version="1.0" encoding="UTF-8"?>
<svg id="Layer_2" data-name="Layer 2" xmlns="http://www.w3.org/2000/svg" xmlns:xlink="http://www.w3.org/1999/xlink" viewBox="0 0 53.23 28.29">
  <defs>
    <style>
      .cls-1 {
        fill: url(#Degradado_sin_nombre_5-4);
      }

      .cls-1, .cls-2, .cls-3, .cls-4, .cls-5, .cls-6 {
        stroke-width: 0px;
      }

      .cls-2 {
        fill: url(#Degradado_sin_nombre_5-2);
      }

      .cls-3 {
        fill: url(#Degradado_sin_nombre_5-3);
      }

      .cls-4 {
        fill: url(#Degradado_sin_nombre_5-5);
      }

      .cls-5 {
        fill: url(#Degradado_sin_nombre_5);
      }

      .cls-6 {
        fill: url(#Degradado_sin_nombre_5-6);
      }
    </style>
    <linearGradient id="Degradado_sin_nombre_5" data-name="Degradado sin nombre 5" x1="32.39" y1="11.47" x2="26.9" y2="16.97" gradientUnits="userSpaceOnUse">
      <stop offset="0" stop-color="#b2802c"/>
      <stop offset=".06" stop-color="#b6862f"/>
      <stop offset=".14" stop-color="#c4993a"/>
      <stop offset=".24" stop-color="#dab84c"/>
      <stop offset=".33" stop-color="#f4dd62"/>
      <stop offset=".52" stop-color="#f4e38b"/>
      <stop offset=".66" stop-color="#f4dd62"/>
      <stop offset="1" stop-color="#b2802c"/>
    </linearGradient>
    <linearGradient id="Degradado_sin_nombre_5-2" data-name="Degradado sin nombre 5" x1="23.96" y1="3.31" x2="2.49" y2="24.77" xlink:href="#Degradado_sin_nombre_5"/>
    <linearGradient id="Degradado_sin_nombre_5-3" data-name="Degradado sin nombre 5" x1="49.17" y1="5.97" x2="30.35" y2="24.79" xlink:href="#Degradado_sin_nombre_5"/>
    <linearGradient id="Degradado_sin_nombre_5-4" data-name="Degradado sin nombre 5" x1="27.86" y1="11.45" x2="22.3" y2="17.02" xlink:href="#Degradado_sin_nombre_5"/>
    <linearGradient id="Degradado_sin_nombre_5-5" data-name="Degradado sin nombre 5" x1="28.67" y1=".92" x2="25.98" y2="3.61" xlink:href="#Degradado_sin_nombre_5"/>
    <linearGradient id="Degradado_sin_nombre_5-6" data-name="Degradado sin nombre 5" x1="28.68" y1="24.68" x2="25.98" y2="27.37" xlink:href="#Degradado_sin_nombre_5"/>
  </defs>
  <g id="Layer_1-2" data-name="Layer 1">
    <g>
      <path class="cls-5" d="m27.36,11.16c.06.09.13.16.19.25.47.83.7,1.77.7,2.81s-.23,1.93-.68,2.77c-.05.1-.13.17-.19.26.45.7,1.02,1.29,1.73,1.72.29.18.61.28.92.39.4-.54.76-1.11,1.03-1.74.46-1.06.69-2.19.69-3.41s-.23-2.3-.69-3.36c-.29-.66-.67-1.26-1.1-1.83-.31.11-.62.22-.9.39-.7.44-1.26,1.03-1.7,1.73Z"/>
      <path class="cls-2" d="m25.53,20.43c-.31-.31-.57-.65-.83-1-.52.17-1.05.29-1.64.29-1.01,0-1.92-.24-2.73-.74-.81-.49-1.45-1.15-1.93-1.98-.47-.83-.71-1.76-.71-2.77s.23-1.98.7-2.81c.47-.83,1.1-1.49,1.89-1.99.79-.49,1.69-.74,2.68-.74.63,0,1.21.14,1.76.33.25-.34.5-.67.8-.98.53-.55,1.15-.98,1.8-1.37-.32-.19-.64-.4-.99-.55-1.06-.47-2.19-.7-3.39-.7s-2.35.23-3.41.7c-1.06.47-1.99,1.11-2.79,1.93-.8.82-1.43,1.76-1.88,2.81-.13.3-.2.62-.29.93v-5.57h-3.16v9.95L0,5.43v16.85h3.16v-9.95l11.42,10.75v-6.37c.09.31.16.63.29.93.45,1.06,1.08,1.99,1.88,2.79.8.8,1.73,1.43,2.79,1.88,1.06.45,2.2.68,3.41.68s2.33-.23,3.39-.68c.35-.15.67-.35.99-.54-.65-.38-1.26-.81-1.8-1.34Z"/>
      <path class="cls-3" d="m48.53,16.34c.23-.08.49-.13.71-.23.95-.46,1.68-1.11,2.19-1.94.51-.83.76-1.79.76-2.87s-.26-2.06-.76-2.88c-.51-.82-1.24-1.46-2.19-1.92-.95-.46-2.11-.69-3.48-.69h-5.79v5.45c-.05-.13-.07-.26-.12-.39-.46-1.06-1.1-2-1.92-2.81-.82-.82-1.76-1.46-2.81-1.93-1.06-.47-2.19-.7-3.39-.7s-2.35.23-3.41.7c-.35.16-.67.36-.99.55.65.39,1.27.83,1.82,1.37.31.31.56.65.82.99.56-.2,1.14-.34,1.79-.34,1,0,1.89.25,2.69.74.79.49,1.42,1.15,1.89,1.99s.7,1.77.7,2.81-.23,1.93-.68,2.77c-.45.83-1.07,1.49-1.86,1.98-.79.49-1.67.74-2.65.74-.65,0-1.25-.14-1.81-.34-.27.37-.55.73-.89,1.05-.55.54-1.17.96-1.82,1.34.32.19.64.39.99.54,1.06.45,2.2.68,3.41.68s2.33-.23,3.39-.68c1.06-.45,2-1.08,2.81-1.88.82-.8,1.46-1.73,1.92-2.79.05-.12.07-.26.12-.39v5.81h3.53v-6.26h1.54l4.03,6.26h4.17l-4.7-6.72Zm-1.38-2.66c-.45.21-.99.31-1.61.31h-2.04v-5.18h2.04c.62,0,1.16.1,1.61.31.45.21.8.5,1.05.89.24.39.37.85.37,1.39s-.12,1.01-.37,1.39c-.25.39-.6.68-1.05.89Z"/>
      <path class="cls-1" d="m26.48,14.23c0-1.04.23-1.98.7-2.81.05-.09.13-.16.19-.25-.45-.7-1-1.3-1.7-1.73-.29-.18-.61-.29-.92-.4-.42.57-.8,1.17-1.09,1.84-.45,1.06-.68,2.18-.68,3.36s.22,2.35.68,3.41c.28.65.64,1.24,1.05,1.79.35-.12.69-.25,1.01-.45.69-.43,1.23-1.02,1.67-1.72-.06-.09-.14-.17-.2-.26-.47-.83-.71-1.76-.71-2.77Z"/>
      <path class="cls-4" d="m24.71,2.35c.32.11.63.22.92.4.7.44,1.26,1.03,1.7,1.73.45-.7,1-1.3,1.7-1.73.28-.17.59-.28.9-.39-.26-.34-.51-.68-.82-.99-.55-.55-1.17-.98-1.82-1.37-.65.39-1.26.83-1.8,1.37-.3.3-.55.64-.8.98Z"/>
      <path class="cls-6" d="m29.94,25.94c-.32-.11-.63-.22-.92-.4-.7-.44-1.26-1.03-1.7-1.73-.45.7-1,1.3-1.7,1.73-.28.17-.59.28-.9.39.26.34.51.68.82.99.55.55,1.17.98,1.82,1.37.65-.39,1.26-.83,1.8-1.37.3-.3.55-.64.8-.98Z"/>
    </g>
  </g>
</svg>